<svg xmlns="http://www.w3.org/2000/svg" width="584" height="219" viewBox="0 0 584 219">
  <g id="Group_9" data-name="Group 9" transform="translate(-671 -691)">
    <text id="Restaurant_Trendsetter" data-name="Restaurant Trendsetter" transform="translate(671 893)" font-size="58" font-family="Reross-Quadratic, Reross Quadratic"><tspan x="0" y="0">Restaurant Trendsetter</tspan></text>
    <g id="Group_7" data-name="Group 7" transform="translate(893 693)">
      <path id="Rectangle_23" data-name="Rectangle 23" d="M72,0h0a0,0,0,0,1,0,0V0A72,72,0,0,1,0,72H0a0,0,0,0,1,0,0v0A72,72,0,0,1,72,0Z" transform="translate(70 -2) rotate(90)" fill="#e1e88a"/>
      <path id="Rectangle_24" data-name="Rectangle 24" d="M71,0h1a0,0,0,0,1,0,0V0A71,71,0,0,1,1,71H0a0,0,0,0,1,0,0v0A71,71,0,0,1,71,0Z" transform="translate(141 -2) rotate(90)" fill="#e1e88a"/>
      <path id="Rectangle_25" data-name="Rectangle 25" d="M71,0h1a0,0,0,0,1,0,0V0A71,71,0,0,1,1,71H0a0,0,0,0,1,0,0v0A71,71,0,0,1,71,0Z" transform="translate(70 141) rotate(180)" fill="#e1e88a"/>
      <path id="Subtraction_11" data-name="Subtraction 11" d="M36.106,71.728h0a36.078,36.078,0,0,1-33.269-21.9,35.76,35.76,0,0,1,0-27.92,35.791,35.791,0,0,1,3.329-6.092A36.129,36.129,0,0,1,36.106,0V71.727Z" transform="translate(103.943 69.728)" fill="#ffc408"/>
    </g>
  </g>
</svg>
