<svg xmlns="http://www.w3.org/2000/svg" width="394" height="164.886" viewBox="0 0 394 164.886">
  <g id="Group_1" data-name="Group 1" transform="translate(-764 -458)">
    <g id="Group_8" data-name="Group 8" transform="translate(580.265 420.389)">
      <path id="Rectangle_23" data-name="Rectangle 23" d="M380.993,90.58h0a52.969,52.969,0,0,1-52.968-52.969h0A52.969,52.969,0,0,1,380.993,90.58Z" fill="#e1e88a"/>
      <path id="Rectangle_24" data-name="Rectangle 24" d="M432.923,90.58h0a52.969,52.969,0,0,1-52.969-52.969h0A52.969,52.969,0,0,1,432.923,90.58Z" transform="translate(-0.397 0)" fill="#e1e88a"/>
      <path id="Rectangle_25" data-name="Rectangle 25" d="M328.025,143.548h0A52.968,52.968,0,0,1,380.993,90.58h0A52.969,52.969,0,0,1,328.025,143.548Z" fill="#e1e88a"/>
      <path id="Subtraction_11" data-name="Subtraction 11" d="M432.526,143.548h0a26.484,26.484,0,1,1,0-52.968Z" fill="#ffc408"/>
    </g>
    <g id="logo" transform="translate(580.265 420.389)">
      <g id="Restaurant_Trendsetter" data-name="Restaurant Trendsetter" style="isolation: isolate">
        <text id="Restaurant_Trendsetter-2" data-name="Restaurant Trendsetter" transform="translate(183.735 190.497)" font-size="39.145" font-family="Reross-Quadratic, Reross Quadratic" style="isolation: isolate"><tspan x="0" y="0">Restaurant Trendsetter</tspan></text>
      </g>
    </g>
  </g>
</svg>
