<svg xmlns="http://www.w3.org/2000/svg" width="1921.5" height="1080" viewBox="0 0 1921.5 1080">
  <g id="Group_10" data-name="Group 10" transform="translate(1)">
    <rect id="Rectangle_1" data-name="Rectangle 1" width="345" height="1080" transform="translate(-1)" fill="#3a8fb7"/>
    <path id="Rectangle_20" data-name="Rectangle 20" d="M301,0h0a0,0,0,0,1,0,0V0A301,301,0,0,1,0,301H0a0,0,0,0,1,0,0v0A301,301,0,0,1,301,0Z" transform="translate(1619 475)" fill="#e1e88a"/>
    <path id="Rectangle_21" data-name="Rectangle 21" d="M301,0h0a0,0,0,0,1,0,0V0A301,301,0,0,1,0,301H0a0,0,0,0,1,0,0v0A301,301,0,0,1,301,0Z" transform="translate(1920 776) rotate(90)" fill="#e1e88a"/>
    <path id="Subtraction_10" data-name="Subtraction 10" d="M124.5,259h0a123.918,123.918,0,0,1-69.609-21.263A124.863,124.863,0,0,1,9.784,182.96,124.336,124.336,0,0,1,21.263,64.891,124.863,124.863,0,0,1,76.039,19.784,123.721,123.721,0,0,1,124.5,10V259Z" transform="translate(1796 641.5)" fill="#ffc408"/>
    <path id="Rectangle_29" data-name="Rectangle 29" d="M301,0h0a0,0,0,0,1,0,0V0A301,301,0,0,1,0,301H0a0,0,0,0,1,0,0v0A301,301,0,0,1,301,0Z" transform="translate(645 1080) rotate(180)" fill="#e1e88a"/>
    <path id="Subtraction_12" data-name="Subtraction 12" d="M124.5,259h0a123.918,123.918,0,0,1-69.609-21.263A124.863,124.863,0,0,1,9.784,182.96,124.336,124.336,0,0,1,21.263,64.891,124.863,124.863,0,0,1,76.039,19.784,123.721,123.721,0,0,1,124.5,10V259Z" transform="translate(468.5 913.5) rotate(180)" fill="#ffc408"/>
    <path id="Subtraction_1" data-name="Subtraction 1" d="M176,354v0a177.834,177.834,0,0,1-98.4-29.375,176.461,176.461,0,0,1-26.047-21,174.163,174.163,0,0,1-21.491-25.456A170.82,170.82,0,0,1,13.831,248.95a168.955,168.955,0,0,1,0-133.9A170.819,170.819,0,0,1,30.058,85.833,174.162,174.162,0,0,1,51.549,60.377a176.564,176.564,0,0,1,55.944-36.861A178.419,178.419,0,0,1,176,10V354Z" transform="translate(-10 1080) rotate(-90)" fill="#fcfaf2"/>
    <rect id="Rectangle_17" data-name="Rectangle 17" width="176" height="176" transform="translate(169 904)" fill="#fcfaf2"/>
    <g id="Group_5" data-name="Group 5" transform="translate(-794.014 521)" style="isolation: isolate">
      <g id="Group_1" data-name="Group 1" transform="translate(833 198)">
        <path id="Subtraction_6" data-name="Subtraction 6" d="M124,96h0a299.918,299.918,0,0,1-48.265-3.773C68.387,91.025,61.3,89.536,54.67,87.8a170.891,170.891,0,0,1-18.351-5.861,111.813,111.813,0,0,1-15.142-7.1A64.316,64.316,0,0,1,9.745,66.683C3.279,60.766,0,54.48,0,48S3.279,35.234,9.745,29.316a64.3,64.3,0,0,1,11.432-8.154,111.814,111.814,0,0,1,15.142-7.1A170.887,170.887,0,0,1,54.67,8.2C61.3,6.464,68.386,4.975,75.734,3.772A299.86,299.86,0,0,1,124,0V3.375h-.008A278.743,278.743,0,0,0,79.127,6.882C72.3,8,65.71,9.384,59.545,11a158.876,158.876,0,0,0-17.061,5.449,103.957,103.957,0,0,0-14.077,6.6,59.779,59.779,0,0,0-10.628,7.58c-6.012,5.5-9.06,11.346-9.06,17.37s3.048,11.869,9.06,17.37a59.78,59.78,0,0,0,10.628,7.58,103.958,103.958,0,0,0,14.077,6.6A158.882,158.882,0,0,0,59.545,85c6.165,1.612,12.753,3,19.582,4.114A278.8,278.8,0,0,0,124,92.625V96Z" transform="translate(0.014 92)" fill="#fcfaf2"/>
        <path id="Subtraction_9" data-name="Subtraction 9" d="M124,96h0a299.915,299.915,0,0,1-48.265-3.773C68.386,91.025,61.3,89.536,54.67,87.8a170.891,170.891,0,0,1-18.351-5.861,111.851,111.851,0,0,1-15.142-7.1A64.334,64.334,0,0,1,9.745,66.683C3.279,60.766,0,54.48,0,48S3.279,35.233,9.745,29.316a64.3,64.3,0,0,1,11.432-8.154,111.814,111.814,0,0,1,15.142-7.1A170.89,170.89,0,0,1,54.67,8.2C61.3,6.464,68.385,4.975,75.734,3.772A299.9,299.9,0,0,1,124,0V3.75h-.008A278.743,278.743,0,0,0,79.127,7.257C72.3,8.375,65.71,9.759,59.545,11.371A158.877,158.877,0,0,0,42.484,16.82a103.954,103.954,0,0,0-14.077,6.6A59.779,59.779,0,0,0,17.778,31c-6.012,5.5-9.06,11.346-9.06,17.37s3.048,11.869,9.06,17.37a59.782,59.782,0,0,0,10.628,7.58,103.955,103.955,0,0,0,14.077,6.6,158.88,158.88,0,0,0,17.061,5.449c6.165,1.612,12.754,3,19.582,4.114A278.8,278.8,0,0,0,124,93v3Z" transform="translate(245.014 96) rotate(180)" fill="#fcfaf2"/>
      </g>
      <g id="Group_2" data-name="Group 2" transform="translate(860.715 198)">
        <path id="Subtraction_6-2" data-name="Subtraction 6" d="M124,96h0a299.918,299.918,0,0,1-48.265-3.773C68.387,91.025,61.3,89.536,54.67,87.8a170.891,170.891,0,0,1-18.351-5.861,111.813,111.813,0,0,1-15.142-7.1A64.316,64.316,0,0,1,9.745,66.683C3.279,60.766,0,54.48,0,48S3.279,35.234,9.745,29.316a64.3,64.3,0,0,1,11.432-8.154,111.814,111.814,0,0,1,15.142-7.1A170.887,170.887,0,0,1,54.67,8.2C61.3,6.464,68.386,4.975,75.734,3.772A299.86,299.86,0,0,1,124,0V3.375h-.008A278.743,278.743,0,0,0,79.127,6.882C72.3,8,65.71,9.384,59.545,11a158.876,158.876,0,0,0-17.061,5.449,103.957,103.957,0,0,0-14.077,6.6,59.779,59.779,0,0,0-10.628,7.58c-6.012,5.5-9.06,11.346-9.06,17.37s3.048,11.869,9.06,17.37a59.78,59.78,0,0,0,10.628,7.58,103.958,103.958,0,0,0,14.077,6.6A158.882,158.882,0,0,0,59.545,85c6.165,1.612,12.753,3,19.582,4.114A278.8,278.8,0,0,0,124,92.625V96Z" transform="translate(0.299 92)" fill="#fcfaf2"/>
        <path id="Subtraction_9-2" data-name="Subtraction 9" d="M124,96h0a299.915,299.915,0,0,1-48.265-3.773C68.386,91.025,61.3,89.536,54.67,87.8a170.891,170.891,0,0,1-18.351-5.861,111.851,111.851,0,0,1-15.142-7.1A64.334,64.334,0,0,1,9.745,66.683C3.279,60.766,0,54.48,0,48S3.279,35.233,9.745,29.316a64.3,64.3,0,0,1,11.432-8.154,111.814,111.814,0,0,1,15.142-7.1A170.89,170.89,0,0,1,54.67,8.2C61.3,6.464,68.385,4.975,75.734,3.772A299.9,299.9,0,0,1,124,0V3.75h-.008A278.743,278.743,0,0,0,79.127,7.257C72.3,8.375,65.71,9.759,59.545,11.371A158.877,158.877,0,0,0,42.484,16.82a103.954,103.954,0,0,0-14.077,6.6A59.779,59.779,0,0,0,17.778,31c-6.012,5.5-9.06,11.346-9.06,17.37s3.048,11.869,9.06,17.37a59.782,59.782,0,0,0,10.628,7.58,103.955,103.955,0,0,0,14.077,6.6,158.88,158.88,0,0,0,17.061,5.449c6.165,1.612,12.754,3,19.582,4.114A278.8,278.8,0,0,0,124,93v3Z" transform="translate(245.299 96) rotate(180)" fill="#fcfaf2"/>
      </g>
      <g id="Group_3" data-name="Group 3" transform="translate(890.014 198)">
        <path id="Subtraction_6-3" data-name="Subtraction 6" d="M124,96h0a299.918,299.918,0,0,1-48.265-3.773C68.387,91.025,61.3,89.536,54.67,87.8a170.891,170.891,0,0,1-18.351-5.861,111.813,111.813,0,0,1-15.142-7.1A64.316,64.316,0,0,1,9.745,66.683C3.279,60.766,0,54.48,0,48S3.279,35.234,9.745,29.316a64.3,64.3,0,0,1,11.432-8.154,111.814,111.814,0,0,1,15.142-7.1A170.887,170.887,0,0,1,54.67,8.2C61.3,6.464,68.386,4.975,75.734,3.772A299.86,299.86,0,0,1,124,0V3.375h-.008A278.743,278.743,0,0,0,79.127,6.882C72.3,8,65.71,9.384,59.545,11a158.876,158.876,0,0,0-17.061,5.449,103.957,103.957,0,0,0-14.077,6.6,59.779,59.779,0,0,0-10.628,7.58c-6.012,5.5-9.06,11.346-9.06,17.37s3.048,11.869,9.06,17.37a59.78,59.78,0,0,0,10.628,7.58,103.958,103.958,0,0,0,14.077,6.6A158.882,158.882,0,0,0,59.545,85c6.165,1.612,12.753,3,19.582,4.114A278.8,278.8,0,0,0,124,92.625V96Z" transform="translate(0 92)" fill="#fcfaf2"/>
        <path id="Subtraction_9-3" data-name="Subtraction 9" d="M124,96h0a299.915,299.915,0,0,1-48.265-3.773C68.386,91.025,61.3,89.536,54.67,87.8a170.891,170.891,0,0,1-18.351-5.861,111.851,111.851,0,0,1-15.142-7.1A64.334,64.334,0,0,1,9.745,66.683C3.279,60.766,0,54.48,0,48S3.279,35.233,9.745,29.316a64.3,64.3,0,0,1,11.432-8.154,111.814,111.814,0,0,1,15.142-7.1A170.89,170.89,0,0,1,54.67,8.2C61.3,6.464,68.385,4.975,75.734,3.772A299.9,299.9,0,0,1,124,0V3.75h-.008A278.743,278.743,0,0,0,79.127,7.257C72.3,8.375,65.71,9.759,59.545,11.371A158.877,158.877,0,0,0,42.484,16.82a103.954,103.954,0,0,0-14.077,6.6A59.779,59.779,0,0,0,17.778,31c-6.012,5.5-9.06,11.346-9.06,17.37s3.048,11.869,9.06,17.37a59.782,59.782,0,0,0,10.628,7.58,103.955,103.955,0,0,0,14.077,6.6,158.88,158.88,0,0,0,17.061,5.449c6.165,1.612,12.754,3,19.582,4.114A278.8,278.8,0,0,0,124,93v3Z" transform="translate(245 96) rotate(180)" fill="#fcfaf2"/>
      </g>
    </g>
    <g id="Rectangle_28" data-name="Rectangle 28" transform="translate(645 479) rotate(90)" fill="none" stroke="#64d7e9" stroke-width="15" opacity="0.5">
      <path d="M301,0h0a0,0,0,0,1,0,0V0A301,301,0,0,1,0,301H0a0,0,0,0,1,0,0v0A301,301,0,0,1,301,0Z" stroke="none"/>
      <path d="M293.5,7.5h0a0,0,0,0,1,0,0v0a286,286,0,0,1-286,286h0a0,0,0,0,1,0,0v0A286,286,0,0,1,293.5,7.5Z" fill="none"/>
    </g>
    <g id="Group_9" data-name="Group 9" transform="translate(-1105.458 -718.852)">
      <path id="Subtraction_13" data-name="Subtraction 13" d="M54.176,108.352h0A53.923,53.923,0,0,1,23.886,99.1,54.334,54.334,0,0,1,4.257,75.263,54.1,54.1,0,0,1,9.252,23.886,54.334,54.334,0,0,1,33.088,4.257,53.837,53.837,0,0,1,54.176,0V108.351Z" transform="translate(1223 828)" fill="#ffc408"/>
      <path id="Subtraction_14" data-name="Subtraction 14" d="M54.176,108.352h0A53.923,53.923,0,0,1,23.886,99.1,54.334,54.334,0,0,1,4.257,75.263,54.1,54.1,0,0,1,9.252,23.886,54.334,54.334,0,0,1,33.088,4.257,53.837,53.837,0,0,1,54.176,0V108.351Z" transform="translate(1330.916 936.352) rotate(180)" fill="#ffc408"/>
    </g>
  </g>
</svg>
